<svg width="20" height="20" viewBox="0 0 20 20" fill="none" xmlns="http://www.w3.org/2000/svg">
<path d="M10.0167 2.42578C7.25835 2.42578 5.01668 4.66745 5.01668 7.42578V9.83411C5.01668 10.3424 4.80001 11.1174 4.54168 11.5508L3.58335 13.1424C2.99168 14.1258 3.40001 15.2174 4.48335 15.5841C8.07501 16.7841 11.95 16.7841 15.5417 15.5841C16.55 15.2508 16.9917 14.0591 16.4417 13.1424L15.4833 11.5508C15.2333 11.1174 15.0167 10.3424 15.0167 9.83411V7.42578C15.0167 4.67578 12.7667 2.42578 10.0167 2.42578Z" stroke="white" stroke-miterlimit="10" stroke-linecap="round"/>
<path d="M11.5583 2.66719C11.3 2.59219 11.0333 2.53385 10.7583 2.50052C9.95834 2.40052 9.19167 2.45885 8.47501 2.66719C8.71667 2.05052 9.31667 1.61719 10.0167 1.61719C10.7167 1.61719 11.3167 2.05052 11.5583 2.66719Z" stroke="white" stroke-miterlimit="10" stroke-linecap="round" stroke-linejoin="round"/>
<path d="M12.5167 15.8828C12.5167 17.2578 11.3917 18.3828 10.0167 18.3828C9.33333 18.3828 8.7 18.0995 8.25 17.6495C7.8 17.1995 7.51666 16.5661 7.51666 15.8828" stroke="white" stroke-miterlimit="10"/>
</svg>
